<svg version="1.1" id="Layer_1" xmlns="http://www.w3.org/2000/svg" xmlns:xlink="http://www.w3.org/1999/xlink" x="0px" y="0px"
	 width="268.201px" height="175.313px" viewBox="0 0 268.201 175.313" enable-background="new 0 0 268.201 175.313"
	 xml:space="preserve">
<path d="M120.901,55.193c-4.415,0-7.987,3.576-7.987,7.987v49.061c0,4.411,3.572,7.987,7.987,7.987
	c4.411,0,7.987-3.576,7.987-7.987V63.18C128.888,58.769,125.312,55.193,120.901,55.193z M94.943,29.266c-4.415,0-7.987,3.576-7.987,7.987v100.914c0,4.411,3.572,7.987,7.987,7.987
	c4.411,0,7.987-3.576,7.987-7.987V37.253C102.93,32.842,99.354,29.266,94.943,29.266z M68.985,5.017c-4.415,0-7.987,3.576-7.987,7.987V162.42c0,4.412,3.572,7.988,7.987,7.988
	c4.411,0,7.987-3.576,7.987-7.988V13.004C76.972,8.593,73.396,5.017,68.985,5.017z M43.028,29.266c-4.415,0-7.987,3.576-7.987,7.987v100.914c0,4.411,3.572,7.987,7.987,7.987
	c4.411,0,7.987-3.576,7.987-7.987V37.253C51.015,32.842,47.438,29.266,43.028,29.266z M8.084,61.507v52.407c0,4.41,3.572,7.986,7.987,7.986c4.411,0,7.987-3.576,7.987-7.986V61.507
	c0-4.411-3.576-7.987-7.987-7.987C11.657,53.52,8.084,57.096,8.084,61.507z M198.773,5.017c-4.414,0-7.986,3.576-7.986,7.987V162.42c0,4.412,3.572,7.988,7.986,7.988
	c4.412,0,7.988-3.576,7.988-7.988V13.004C206.762,8.593,203.186,5.017,198.773,5.017z M172.816,29.266c-4.414,0-7.987,3.576-7.987,7.987v100.914c0,4.411,3.573,7.987,7.987,7.987
	c4.41,0,7.986-3.576,7.986-7.987V37.253C180.803,32.842,177.227,29.266,172.816,29.266z M146.858,42.37c-4.415,0-7.987,3.576-7.987,7.987v74.707c0,4.411,3.572,7.987,7.987,7.987
	c4.411,0,7.987-3.576,7.987-7.987V50.357C154.846,45.946,151.27,42.37,146.858,42.37z M224.731,29.266c-4.414,0-7.986,3.576-7.986,7.987v100.914c0,4.411,3.572,7.987,7.986,7.987
	c4.411,0,7.987-3.576,7.987-7.987V37.253C232.719,32.842,229.143,29.266,224.731,29.266z M259.675,113.914V61.507c0-4.411-3.576-7.987-7.987-7.987c-4.414,0-7.986,3.576-7.986,7.987v52.407
	c0,4.41,3.572,7.986,7.986,7.986C256.099,121.9,259.675,118.324,259.675,113.914z" />
</svg>
