<?xml version="1.0" standalone="no"?>
<!DOCTYPE svg PUBLIC "-//W3C//DTD SVG 20010904//EN"
 "http://www.w3.org/TR/2001/REC-SVG-20010904/DTD/svg10.dtd">
<svg version="1.0" xmlns="http://www.w3.org/2000/svg"
 width="302.000000pt" height="302.000000pt" viewBox="0 0 302.000000 302.000000"
 preserveAspectRatio="xMidYMid meet">
<metadata>
Created by potrace 1.11, written by Peter Selinger 2001-2013
</metadata>
<g transform="translate(0.000000,302.000000) scale(0.100000,-0.100000)"
fill="#000000" stroke="none">
<path d="M1285 2995 c-737 -115 -1275 -742 -1275 -1485 0 -831 669 -1500 1500
-1500 681 0 1268 449 1450 1110 66 241 66 539 0 780 -160 581 -635 1004 -1230
1095 -114 18 -334 18 -445 0z m385 -700 c397 -83 663 -454 618 -861 l-10 -92
36 -46 c115 -151 74 -385 -88 -493 -48 -33 -89 -48 -158 -59 l-38 -7 0 353 0
352 39 -4 39 -3 7 43 c22 150 -53 350 -180 477 -119 120 -254 175 -425 175
-110 0 -191 -19 -282 -67 -171 -90 -291 -263 -319 -458 -6 -43 -8 -99 -4 -124
l6 -46 40 3 39 4 0 -352 0 -353 -37 7 c-70 11 -111 26 -159 59 -162 108 -203
342 -88 493 l36 46 -10 92 c-44 403 220 775 611 860 84 19 240 19 327 1z
m-449 -825 c18 -10 19 -25 19 -374 0 -300 -2 -366 -14 -375 -9 -8 -46 -11
-103 -9 l-88 3 -3 374 c-2 293 1 376 10 383 19 11 156 10 179 -2z m757 2 c9
-7 12 -90 10 -383 l-3 -374 -88 -3 c-57 -2 -94 1 -103 9 -12 9 -14 75 -14 375
0 335 1 364 18 373 20 12 161 14 180 3z"/>
</g>
</svg>
